<?xml version="1.0" encoding="UTF-8" standalone="no"?>
<!-- Created with Inkscape (http://www.inkscape.org/) -->

<svg
   width="19.882843mm"
   height="19.88903mm"
   viewBox="0 0 19.882843 19.88903"
   version="1.1"
   id="svg1"
   inkscape:version="1.4.2 (f4327f4, 2025-05-13)"
   sodipodi:docname="question.svg"
   xmlns:inkscape="http://www.inkscape.org/namespaces/inkscape"
   xmlns:sodipodi="http://sodipodi.sourceforge.net/DTD/sodipodi-0.dtd"
   xmlns="http://www.w3.org/2000/svg"
   xmlns:svg="http://www.w3.org/2000/svg">
  <sodipodi:namedview
     id="namedview1"
     pagecolor="#ffffff"
     bordercolor="#000000"
     borderopacity="0.25"
     inkscape:showpageshadow="2"
     inkscape:pageopacity="0.0"
     inkscape:pagecheckerboard="0"
     inkscape:deskcolor="#d1d1d1"
     inkscape:document-units="mm"
     inkscape:zoom="2.9540685"
     inkscape:cx="-34.020877"
     inkscape:cy="49.592622"
     inkscape:window-width="1920"
     inkscape:window-height="1009"
     inkscape:window-x="3832"
     inkscape:window-y="-8"
     inkscape:window-maximized="1"
     inkscape:current-layer="layer1" />
  <defs
     id="defs1" />
  <g
     inkscape:label="Layer 1"
     inkscape:groupmode="layer"
     id="layer1"
     transform="translate(-141.90093,-152.4231)">
    <g
       id="g1">
      <path
         fill="#000000"
         d="m 159.91375,166.01204 a 0.396875,0.40481249 22.7 0 0 0.12171,0.30692 q 1.61396,1.53458 1.71185,3.69358 0.0714,1.55046 0.003,2.16694 a 0.15345833,0.14816666 3.4 0 1 -0.15081,0.12965 l -16.637,0.003 a 0.1905,0.1984375 79.7 0 1 -0.18257,-0.12171 l -2.80458,-6.96648 q -0.0714,-0.17727 -0.0714,-0.38364 0,-5.01386 -0.003,-9.77635 -0.003,-0.8599 0.5371,-1.42346 0.47361,-0.49477 0.67733,-0.6985 0.37836,-0.37307 0.90488,-0.45773 0.57944,-0.0926 1.35996,-0.045 0.84402,0.0503 1.28852,0.33602 0.72231,0.46567 0.84402,1.42875 a 0.36247916,0.1825625 30.8 0 0 0.127,0.19844 l 0.93133,0.82285 a 0.16139583,0.12435417 45.2 0 0 0.18257,0.0238 q 3.09033,-2.30452 6.43202,-1.18533 1.81504,0.60854 3.00037,1.95263 0.83873,0.94985 1.29646,2.15635 0.3466,0.91017 0.42598,2.43152 0.14287,2.71727 0.005,5.40808 z m -16.74283,-7.44273 q -0.0159,2.81782 -0.0132,5.63563 0.003,0.71173 0.27252,1.37319 1.09802,2.68287 2.16694,5.3922 a 0.15875,0.15610416 79 0 0 0.14552,0.10055 l 14.6685,-0.0159 a 0.14022916,0.142875 2.3 0 0 0.14023,-0.13229 q 0.16933,-2.58763 -1.85738,-4.15131 0.0503,-2.69346 -0.0106,-5.38692 -0.0476,-2.03729 -0.4789,-3.05329 -0.65616,-1.54252 -2.07169,-2.45798 -1.15622,-0.74877 -2.51354,-0.89694 -1.43668,-0.1561 -2.71991,0.41804 -2.38919,1.07157 -3.09298,3.42107 -0.27782,0.92339 -0.27782,3.36814 0,1.69863 -0.0132,3.39725 -0.51065,-0.29633 -0.65088,-0.92604 -0.76729,-3.4634 -1.20121,-6.08542 l -0.005,-0.44714 a 0.15345833,0.3571875 54.3 0 1 0.13229,-0.21961 l 1.57427,-1.48695 a 0.29633333,0.35454166 66.2 0 0 0.11113,-0.2249 q 0.0344,-0.635 -0.95515,-0.67469 a 0.28839583,0.28575 5.7 0 1 -0.26987,-0.32808 q 0.10583,-0.71173 -0.13759,-1.24619 a 0.28310416,0.301625 86.4 0 0 -0.18785,-0.1561 q -0.85196,-0.2249 -1.84415,-0.0159 a 0.22754166,0.22489583 1.7 0 0 -0.16933,0.15875 q -0.13494,0.48419 -0.42069,0.52917 a 0.381,0.38629166 85.6 0 0 -0.32808,0.37835 z"
         id="path5887"
         style="stroke-width:0.264583" />
      <path
         fill="#ffc83d"
         d="m 145.66329,158.56931 q -1.24619,0.17198 -2.49237,0 l -0.008,-3.73327 a 0.381,0.38629166 85.6 0 1 0.32808,-0.37835 q 0.28575,-0.045 0.42069,-0.52917 a 0.22754166,0.22489583 1.7 0 1 0.16933,-0.15875 q 0.99219,-0.20902 1.84415,0.0159 a 0.28310416,0.301625 86.4 0 1 0.18785,0.1561 q 0.24342,0.53446 0.13759,1.24619 a 0.28839583,0.28575 5.7 0 0 0.26987,0.32808 q 0.98954,0.0397 0.95515,0.67469 a 0.29633333,0.35454166 66.2 0 1 -0.11113,0.2249 l -1.57427,1.48695 a 0.15345833,0.3571875 54.3 0 0 -0.13229,0.21961 z"
         id="path5890"
         style="stroke-width:0.264583" />
      <path
         fill="#8e562e"
         d="m 158.69402,166.7714 q -1.86796,-0.96573 -3.95817,-0.58473 -1.62189,-0.1905 -3.24114,0 -1.37319,-0.16404 -2.24896,-0.0767 -1.06627,0.10848 -1.73037,-0.52917 0.0132,-1.69862 0.0132,-3.39725 0,-2.44475 0.27782,-3.36814 0.70379,-2.3495 3.09298,-3.42107 1.28323,-0.57414 2.71991,-0.41804 1.35732,0.14817 2.51354,0.89694 1.41553,0.91546 2.07169,2.45798 0.43127,1.016 0.4789,3.05329 0.0609,2.69346 0.0106,5.38692 z m -5.09852,-7.55121 q -1.27265,0.0397 -2.29129,-1.01071 a 0.111125,0.111125 0 0 0 -0.18256,0.037 q -0.52917,1.33086 -2.12725,1.62719 a 0.23547916,0.23547916 0 0 0 -0.19315,0.21431 q -0.19579,2.77813 1.40494,4.23334 1.51871,1.37847 3.64331,1.06097 2.21985,-0.33072 3.31788,-2.72785 0.42333,-0.92604 0.27516,-2.61408 a 0.1666875,0.16139583 1.8 0 0 -0.14287,-0.14817 q -2.25425,-0.29104 -3.44223,-2.23573 -0.16934,-0.27516 -0.1614,0.0476 l 0.0291,1.37848 a 0.1349375,0.13229166 88.9 0 1 -0.12965,0.13758 z"
         id="path5893"
         style="stroke-width:0.264583" />
      <path
         fill="#ffc83d"
         d="m 153.72515,159.08261 -0.0291,-1.37848 q -0.008,-0.32279 0.1614,-0.0476 1.18798,1.94469 3.44223,2.23573 a 0.1666875,0.16139583 1.8 0 1 0.14287,0.14817 q 0.14817,1.68804 -0.27516,2.61408 -1.09803,2.39713 -3.31788,2.72785 -2.1246,0.3175 -3.64331,-1.06097 -1.60073,-1.45521 -1.40494,-4.23334 a 0.23547916,0.23547916 0 0 1 0.19315,-0.21431 q 1.59808,-0.29633 2.12725,-1.62719 a 0.111125,0.111125 0 0 1 0.18256,-0.037 q 1.01864,1.0504 2.29129,1.01071 a 0.1349375,0.13229166 88.9 0 0 0.12965,-0.13758 z m 1.2356,2.68552 a 0.64822916,0.93133332 0 0 0 0.64823,-0.93134 0.64822916,0.93133332 0 0 0 -0.64823,-0.93133 0.64822916,0.93133332 0 0 0 -0.64823,0.93133 0.64822916,0.93133332 0 0 0 0.64823,0.93134 z m -3.72695,-0.005 a 0.63764583,0.92339582 0.1 0 0 0.63926,-0.92228 0.63764583,0.92339582 0.1 0 0 -0.63603,-0.92451 0.63764583,0.92339582 0.1 0 0 -0.63926,0.92229 0.63764583,0.92339582 0.1 0 0 0.63603,0.9245 z m 2.02833,-0.003 q -0.34396,-0.0952 -0.64823,0.0661 a 0.12435417,0.1190625 59.1 0 0 -0.0397,0.17728 q 0.52387,0.75406 1.0451,-0.0344 a 0.09525,0.10583333 28.5 0 0 -0.037,-0.15081 q -0.0529,-0.0185 -0.10848,-0.0265 -0.15346,-0.0159 -0.21166,-0.0318 z m -0.92075,2.17752 q 1.15622,0.74877 1.91293,-0.48419 0.26988,-0.44185 -0.24077,-0.44185 l -1.99496,-0.008 a 0.12170833,0.1190625 84.4 0 0 -0.11906,0.14817 q 0.12171,0.57414 0.44186,0.78581 z"
         id="path5899"
         style="stroke-width:0.264583" />
      <path
         fill="#886ce4"
         d="m 143.17092,158.56931 q 1.24618,0.17198 2.49237,0 0.43392,2.62202 1.20121,6.08542 0.14023,0.62971 0.65088,0.92604 0.6641,0.63765 1.73037,0.52917 0.87577,-0.0873 2.24896,0.0767 l -0.23019,0.45773 a 0.32014583,0.18785416 55.4 0 0 0.0185,0.24606 q 1.01071,2.2516 1.35202,2.70933 0.26723,0.35454 0.635,0.21432 0.2249,-0.0847 0.39952,-0.41011 0.62442,-1.15887 1.16946,-2.35744 0.11113,-0.24077 0.0714,-0.43391 -0.045,-0.2249 -0.17463,-0.42598 2.09021,-0.381 3.95817,0.58473 2.02671,1.56368 1.85738,4.15131 a 0.14022916,0.142875 2.3 0 1 -0.14023,0.13229 l -14.6685,0.0159 a 0.15875,0.15610416 79 0 1 -0.14552,-0.10055 q -1.06892,-2.70933 -2.16694,-5.3922 -0.26988,-0.66146 -0.27252,-1.37319 -0.003,-2.81781 0.0132,-5.63563 z"
         id="path5902"
         style="stroke-width:0.264583" />
      <ellipse
         fill="#000000"
         cx="160.83679"
         cy="-154.96075"
         transform="rotate(90)"
         rx="0.9313333"
         ry="0.64822918"
         id="ellipse5905"
         style="stroke-width:0.264583" />
      <ellipse
         fill="#000000"
         cx="160.57524"
         cy="-151.51591"
         transform="rotate(90.1)"
         rx="0.92339581"
         ry="0.63764584"
         id="ellipse5908"
         style="stroke-width:0.264583" />
      <path
         fill="#f7894a"
         d="m 153.47379,161.79194 q 0.0556,0.008 0.10848,0.0265 a 0.09525,0.10583333 28.5 0 1 0.037,0.15081 q -0.52123,0.78846 -1.0451,0.0344 a 0.12435417,0.1190625 59.1 0 1 0.0397,-0.17728 q 0.30427,-0.16139 0.64823,-0.0661 0.0582,0.0159 0.21166,0.0318 z"
         id="path5911"
         style="stroke-width:0.264583" />
      <path
         fill="#000000"
         d="m 152.34138,163.93771 q -0.32015,-0.21167 -0.44186,-0.78581 a 0.12170833,0.1190625 84.4 0 1 0.11906,-0.14817 l 1.99496,0.008 q 0.51065,0 0.24077,0.44185 -0.75671,1.23296 -1.91293,0.48419 z"
         id="path5916"
         style="stroke-width:0.264583" />
      <path
         fill="#ffc83d"
         d="m 154.73585,166.18667 q 0.12965,0.20108 0.17463,0.42598 0.0397,0.19314 -0.0714,0.43391 -0.54504,1.19857 -1.16946,2.35744 -0.17462,0.32544 -0.39952,0.41011 -0.36777,0.14022 -0.635,-0.21432 -0.34131,-0.45773 -1.35202,-2.70933 a 0.32014583,0.18785416 55.4 0 1 -0.0185,-0.24606 l 0.23019,-0.45773 q 1.61925,-0.1905 3.24114,0 z"
         id="path5922"
         style="stroke-width:0.264583" />
    </g>
    <g
       id="g8">
      <path
         fill="#000000"
         d="m 159.91375,166.01204 a 0.396875,0.40481249 22.7 0 0 0.12171,0.30692 q 1.61396,1.53458 1.71185,3.69358 0.0714,1.55046 0.003,2.16694 a 0.15345833,0.14816666 3.4 0 1 -0.15081,0.12965 l -16.637,0.003 a 0.1905,0.1984375 79.7 0 1 -0.18257,-0.12171 l -2.80458,-6.96648 q -0.0714,-0.17727 -0.0714,-0.38364 0,-5.01386 -0.003,-9.77635 -0.003,-0.8599 0.5371,-1.42346 0.47361,-0.49477 0.67733,-0.6985 0.37836,-0.37307 0.90488,-0.45773 0.57944,-0.0926 1.35996,-0.045 0.84402,0.0503 1.28852,0.33602 0.72231,0.46567 0.84402,1.42875 a 0.36247916,0.1825625 30.8 0 0 0.127,0.19844 l 0.93133,0.82285 a 0.16139583,0.12435417 45.2 0 0 0.18257,0.0238 q 3.09033,-2.30452 6.43202,-1.18533 1.81504,0.60854 3.00037,1.95263 0.83873,0.94985 1.29646,2.15635 0.3466,0.91017 0.42598,2.43152 0.14287,2.71727 0.005,5.40808 z m -16.74283,-7.44273 q -0.0159,2.81782 -0.0132,5.63563 0.003,0.71173 0.27252,1.37319 1.09802,2.68287 2.16694,5.3922 a 0.15875,0.15610416 79 0 0 0.14552,0.10055 l 14.6685,-0.0159 a 0.14022916,0.142875 2.3 0 0 0.14023,-0.13229 q 0.16933,-2.58763 -1.85738,-4.15131 0.0503,-2.69346 -0.0106,-5.38692 -0.0476,-2.03729 -0.4789,-3.05329 -0.65616,-1.54252 -2.07169,-2.45798 -1.15622,-0.74877 -2.51354,-0.89694 -1.43668,-0.1561 -2.71991,0.41804 -2.38919,1.07157 -3.09298,3.42107 -0.27782,0.92339 -0.27782,3.36814 0,1.69863 -0.0132,3.39725 -0.51065,-0.29633 -0.65088,-0.92604 -0.76729,-3.4634 -1.20121,-6.08542 l -0.005,-0.44714 a 0.15345833,0.3571875 54.3 0 1 0.13229,-0.21961 l 1.57427,-1.48695 a 0.29633333,0.35454166 66.2 0 0 0.11113,-0.2249 q 0.0344,-0.635 -0.95515,-0.67469 a 0.28839583,0.28575 5.7 0 1 -0.26987,-0.32808 q 0.10583,-0.71173 -0.13759,-1.24619 a 0.28310416,0.301625 86.4 0 0 -0.18785,-0.1561 q -0.85196,-0.2249 -1.84415,-0.0159 a 0.22754166,0.22489583 1.7 0 0 -0.16933,0.15875 q -0.13494,0.48419 -0.42069,0.52917 a 0.381,0.38629166 85.6 0 0 -0.32808,0.37835 z"
         id="path1"
         style="stroke-width:0.264583" />
      <path
         fill="#ffc83d"
         d="m 145.66329,158.56931 q -1.24619,0.17198 -2.49237,0 l -0.008,-3.73327 a 0.381,0.38629166 85.6 0 1 0.32808,-0.37835 q 0.28575,-0.045 0.42069,-0.52917 a 0.22754166,0.22489583 1.7 0 1 0.16933,-0.15875 q 0.99219,-0.20902 1.84415,0.0159 a 0.28310416,0.301625 86.4 0 1 0.18785,0.1561 q 0.24342,0.53446 0.13759,1.24619 a 0.28839583,0.28575 5.7 0 0 0.26987,0.32808 q 0.98954,0.0397 0.95515,0.67469 a 0.29633333,0.35454166 66.2 0 1 -0.11113,0.2249 l -1.57427,1.48695 a 0.15345833,0.3571875 54.3 0 0 -0.13229,0.21961 z"
         id="path2"
         style="stroke-width:0.264583" />
      <path
         fill="#8e562e"
         d="m 158.69402,166.7714 q -1.86796,-0.96573 -3.95817,-0.58473 -1.62189,-0.1905 -3.24114,0 -1.37319,-0.16404 -2.24896,-0.0767 -1.06627,0.10848 -1.73037,-0.52917 0.0132,-1.69862 0.0132,-3.39725 0,-2.44475 0.27782,-3.36814 0.70379,-2.3495 3.09298,-3.42107 1.28323,-0.57414 2.71991,-0.41804 1.35732,0.14817 2.51354,0.89694 1.41553,0.91546 2.07169,2.45798 0.43127,1.016 0.4789,3.05329 0.0609,2.69346 0.0106,5.38692 z m -5.09852,-7.55121 q -1.27265,0.0397 -2.29129,-1.01071 a 0.111125,0.111125 0 0 0 -0.18256,0.037 q -0.52917,1.33086 -2.12725,1.62719 a 0.23547916,0.23547916 0 0 0 -0.19315,0.21431 q -0.19579,2.77813 1.40494,4.23334 1.51871,1.37847 3.64331,1.06097 2.21985,-0.33072 3.31788,-2.72785 0.42333,-0.92604 0.27516,-2.61408 a 0.1666875,0.16139583 1.8 0 0 -0.14287,-0.14817 q -2.25425,-0.29104 -3.44223,-2.23573 -0.16934,-0.27516 -0.1614,0.0476 l 0.0291,1.37848 a 0.1349375,0.13229166 88.9 0 1 -0.12965,0.13758 z"
         id="path3"
         style="stroke-width:0.264583" />
      <path
         fill="#ffc83d"
         d="m 153.72515,159.08261 -0.0291,-1.37848 q -0.008,-0.32279 0.1614,-0.0476 1.18798,1.94469 3.44223,2.23573 a 0.1666875,0.16139583 1.8 0 1 0.14287,0.14817 q 0.14817,1.68804 -0.27516,2.61408 -1.09803,2.39713 -3.31788,2.72785 -2.1246,0.3175 -3.64331,-1.06097 -1.60073,-1.45521 -1.40494,-4.23334 a 0.23547916,0.23547916 0 0 1 0.19315,-0.21431 q 1.59808,-0.29633 2.12725,-1.62719 a 0.111125,0.111125 0 0 1 0.18256,-0.037 q 1.01864,1.0504 2.29129,1.01071 a 0.1349375,0.13229166 88.9 0 0 0.12965,-0.13758 z m 1.2356,2.68552 a 0.64822916,0.93133332 0 0 0 0.64823,-0.93134 0.64822916,0.93133332 0 0 0 -0.64823,-0.93133 0.64822916,0.93133332 0 0 0 -0.64823,0.93133 0.64822916,0.93133332 0 0 0 0.64823,0.93134 z m -3.72695,-0.005 a 0.63764583,0.92339582 0.1 0 0 0.63926,-0.92228 0.63764583,0.92339582 0.1 0 0 -0.63603,-0.92451 0.63764583,0.92339582 0.1 0 0 -0.63926,0.92229 0.63764583,0.92339582 0.1 0 0 0.63603,0.9245 z m 2.02833,-0.003 q -0.34396,-0.0952 -0.64823,0.0661 a 0.12435417,0.1190625 59.1 0 0 -0.0397,0.17728 q 0.52387,0.75406 1.0451,-0.0344 a 0.09525,0.10583333 28.5 0 0 -0.037,-0.15081 q -0.0529,-0.0185 -0.10848,-0.0265 -0.15346,-0.0159 -0.21166,-0.0318 z m -0.92075,2.17752 q 1.15622,0.74877 1.91293,-0.48419 0.26988,-0.44185 -0.24077,-0.44185 l -1.99496,-0.008 a 0.12170833,0.1190625 84.4 0 0 -0.11906,0.14817 q 0.12171,0.57414 0.44186,0.78581 z"
         id="path4"
         style="stroke-width:0.264583" />
      <path
         fill="#886ce4"
         d="m 143.17092,158.56931 q 1.24618,0.17198 2.49237,0 0.43392,2.62202 1.20121,6.08542 0.14023,0.62971 0.65088,0.92604 0.6641,0.63765 1.73037,0.52917 0.87577,-0.0873 2.24896,0.0767 l -0.23019,0.45773 a 0.32014583,0.18785416 55.4 0 0 0.0185,0.24606 q 1.01071,2.2516 1.35202,2.70933 0.26723,0.35454 0.635,0.21432 0.2249,-0.0847 0.39952,-0.41011 0.62442,-1.15887 1.16946,-2.35744 0.11113,-0.24077 0.0714,-0.43391 -0.045,-0.2249 -0.17463,-0.42598 2.09021,-0.381 3.95817,0.58473 2.02671,1.56368 1.85738,4.15131 a 0.14022916,0.142875 2.3 0 1 -0.14023,0.13229 l -14.6685,0.0159 a 0.15875,0.15610416 79 0 1 -0.14552,-0.10055 q -1.06892,-2.70933 -2.16694,-5.3922 -0.26988,-0.66146 -0.27252,-1.37319 -0.003,-2.81781 0.0132,-5.63563 z"
         id="path5"
         style="stroke-width:0.264583" />
      <ellipse
         fill="#000000"
         cx="160.83679"
         cy="-154.96075"
         transform="rotate(90)"
         rx="0.9313333"
         ry="0.64822918"
         id="ellipse5"
         style="stroke-width:0.264583" />
      <ellipse
         fill="#000000"
         cx="160.57524"
         cy="-151.51591"
         transform="rotate(90.1)"
         rx="0.92339581"
         ry="0.63764584"
         id="ellipse6"
         style="stroke-width:0.264583" />
      <path
         fill="#f7894a"
         d="m 153.47379,161.79194 q 0.0556,0.008 0.10848,0.0265 a 0.09525,0.10583333 28.5 0 1 0.037,0.15081 q -0.52123,0.78846 -1.0451,0.0344 a 0.12435417,0.1190625 59.1 0 1 0.0397,-0.17728 q 0.30427,-0.16139 0.64823,-0.0661 0.0582,0.0159 0.21166,0.0318 z"
         id="path6"
         style="stroke-width:0.264583" />
      <path
         fill="#000000"
         d="m 152.34138,163.93771 q -0.32015,-0.21167 -0.44186,-0.78581 a 0.12170833,0.1190625 84.4 0 1 0.11906,-0.14817 l 1.99496,0.008 q 0.51065,0 0.24077,0.44185 -0.75671,1.23296 -1.91293,0.48419 z"
         id="path7"
         style="stroke-width:0.264583" />
      <path
         fill="#ffc83d"
         d="m 154.73585,166.18667 q 0.12965,0.20108 0.17463,0.42598 0.0397,0.19314 -0.0714,0.43391 -0.54504,1.19857 -1.16946,2.35744 -0.17462,0.32544 -0.39952,0.41011 -0.36777,0.14022 -0.635,-0.21432 -0.34131,-0.45773 -1.35202,-2.70933 a 0.32014583,0.18785416 55.4 0 1 -0.0185,-0.24606 l 0.23019,-0.45773 q 1.61925,-0.1905 3.24114,0 z"
         id="path8"
         style="stroke-width:0.264583" />
    </g>
  </g>
</svg>
